<?xml version="1.0" encoding="UTF-8" standalone="no"?>
<!-- Generator: Adobe Illustrator 16.0.0, SVG Export Plug-In . SVG Version: 6.00 Build 0)  -->

<svg
   xmlns:dc="http://purl.org/dc/elements/1.1/"
   xmlns:cc="http://creativecommons.org/ns#"
   xmlns:rdf="http://www.w3.org/1999/02/22-rdf-syntax-ns#"
   xmlns:svg="http://www.w3.org/2000/svg"
   xmlns="http://www.w3.org/2000/svg"
   xmlns:sodipodi="http://sodipodi.sourceforge.net/DTD/sodipodi-0.dtd"
   xmlns:inkscape="http://www.inkscape.org/namespaces/inkscape"
   version="1.1"
   id="Layer_1"
   x="0px"
   y="0px"
   width="1000"
   height="437.284"
   viewBox="0 0 999.99998 437.284"
   enable-background="new 0 0 1000 453.093"
   xml:space="preserve"
   inkscape:version="0.91 r13725"
   sodipodi:docname="CBS (Wordmark).svg"><metadata
   id="metadata30"><rdf:RDF><cc:Work
       rdf:about=""><dc:format>image/svg+xml</dc:format><dc:type
         rdf:resource="http://purl.org/dc/dcmitype/StillImage" /><dc:title></dc:title></cc:Work></rdf:RDF></metadata><defs
   id="defs28">
	
	
	
	
	
	
	
	
<filter
   style="color-interpolation-filters:sRGB"
   height="1.48"
   y="-0.23999999"
   width="1.48"
   x="-0.23999999"
   id="filter4743"
   inkscape:collect="always"><feGaussianBlur
     id="feGaussianBlur4745"
     stdDeviation="18.515625"
     inkscape:collect="always" /></filter><clipPath
   id="clipPath4749"
   clipPathUnits="userSpaceOnUse"><path
     inkscape:connector-curvature="0"
     id="path4751"
     style="fill:#e6e6e6;filter:url(#filter4743)"
     d="M 92.593754,0 C 41.485799,-9.9999997e-7 0,41.485795 0,92.593752 0,143.70171 41.48579,185.15625 92.593754,185.15625 143.7017,185.15624 185.15625,143.70171 185.15625,92.593752 185.15625,41.485792 143.70171,0 92.593754,0 Z m -3.40625,39.5 c 0.91489,-0.01786 1.83341,-0.01244 2.75,0 30.870236,-0.127652 61.290266,15.768585 78.187496,41.71875 2.26153,3.35523 5.24767,8.747192 6.40625,11.375002 C 166.02852,115.03261 146.03119,132.6595 122.5625,140.53125 92.011544,151.3655 55.798401,144.82379 31.71875,122.90625 22.04685,114.50521 14.58633,103.61079 8.59375,92.593752 11.13919,88.495224 14.01418,82.718616 17.3125,78.375 33.419418,55.072594 60.825712,40.053694 89.187504,39.5 Z m 3.375,8.5625 c -24.574624,0 -44.500007,19.925376 -44.500004,44.500002 0,24.574618 19.92538,44.531238 44.500004,44.531248 24.574616,0 44.531246,-19.95663 44.531246,-44.531248 0,-24.574622 -19.95663,-44.500004 -44.531246,-44.500002 z" /></clipPath><clipPath
   id="clipPath4753"
   clipPathUnits="userSpaceOnUse"><path
     inkscape:connector-curvature="0"
     id="path4755"
     style="fill:#e6e6e6;filter:url(#filter4743)"
     d="M 92.593754,0 C 41.485799,-9.9999997e-7 0,41.485795 0,92.593752 0,143.70171 41.48579,185.15625 92.593754,185.15625 143.7017,185.15624 185.15625,143.70171 185.15625,92.593752 185.15625,41.485792 143.70171,0 92.593754,0 Z m -3.40625,39.5 c 0.91489,-0.01786 1.83341,-0.01244 2.75,0 30.870236,-0.127652 61.290266,15.768585 78.187496,41.71875 2.26153,3.35523 5.24767,8.747192 6.40625,11.375002 C 166.02852,115.03261 146.03119,132.6595 122.5625,140.53125 92.011544,151.3655 55.798401,144.82379 31.71875,122.90625 22.04685,114.50521 14.58633,103.61079 8.59375,92.593752 11.13919,88.495224 14.01418,82.718616 17.3125,78.375 33.419418,55.072594 60.825712,40.053694 89.187504,39.5 Z m 3.375,8.5625 c -24.574624,0 -44.500007,19.925376 -44.500004,44.500002 0,24.574618 19.92538,44.531238 44.500004,44.531248 24.574616,0 44.531246,-19.95663 44.531246,-44.531248 0,-24.574622 -19.95663,-44.500004 -44.531246,-44.500002 z" /></clipPath></defs><sodipodi:namedview
   pagecolor="#ffffff"
   bordercolor="#666666"
   borderopacity="1"
   objecttolerance="10"
   gridtolerance="10"
   guidetolerance="10"
   inkscape:pageopacity="0"
   inkscape:pageshadow="2"
   inkscape:window-width="1366"
   inkscape:window-height="705"
   id="namedview26"
   showgrid="false"
   inkscape:zoom="0.5"
   inkscape:cx="600.84345"
   inkscape:cy="187.36933"
   inkscape:window-x="-8"
   inkscape:window-y="-8"
   inkscape:window-maximized="1"
   inkscape:current-layer="Layer_1" />

<g
   id="g4745"
   transform="matrix(1.458173,0,0,1.458173,-460.85288,-0.08045465)"><path
     style="fill:#000000;fill-opacity:1;fill-rule:nonzero;stroke:none"
     id="path1534-0"
     d="m 443.93784,5.2002568 c 54.79168,0 78.10301,80.5686892 83.90599,105.2747332 l 0.19928,0.74713 2.78932,0 0,-106.6444997 -1.81907,2.6399805 c -5.35454,7.6957212 -12.92586,9.3394692 -23.31132,9.3394692 -7.04819,0 -14.42011,-3.01354 -23.03747,-6.450472 C 471.00885,5.3995008 457.70949,0.0697676 440.54982,0.0697676 c -24.85556,0 -56.037,16.5122194 -79.52278,42.0899634 -20.52177,22.315031 -44.9789,61.466239 -44.9789,121.089579 0,76.98238 62.86098,136.68029 117.03012,136.68029 21.71733,0 34.61838,-5.77804 46,-10.9833 9.01579,-4.08452 16.78616,-7.62108 27.32101,-7.62108 8.99086,0 17.35919,4.95622 22.48939,13.39912 l 1.81737,3.01355 0,-117.03 -2.86402,0 -0.17954,0.89663 c -7.14782,45.45203 -37.10889,113.11982 -89.93296,113.11982 -52.40081,0 -63.15989,-51.23007 -63.15989,-128.26222 0,-75.014772 7.89507,-161.2618632 69.36132,-161.2618632"
     inkscape:connector-curvature="0" /><path
     style="fill:#000000;fill-opacity:1;fill-rule:nonzero;stroke:none"
     id="path1538-9"
     d="m 725.08027,139.02366 c 27.42079,-7.47144 61.54094,-22.51432 61.54094,-63.732551 0,-21.717528 -10.68439,-40.072655 -30.98229,-52.998493 C 737.05961,10.313166 711.00872,3.7630769 682.46731,3.7630769 l -132.04793,0 0,5.5040609 46.2242,0 0,280.3090922 -46.2242,0 0,5.42936 138.54828,0 c 65.0275,0 108.73649,-34.02077 108.73649,-84.75276 0,-35.34054 -23.83446,-58.65186 -72.62389,-71.22917 m -32.20254,-2.9139 -38.75278,0 0,-126.8426222 12.22876,0 c 51.92718,0 68.11587,8.3681772 68.11587,60.6444912 0,55.937371 -14.04662,66.198131 -41.59185,66.198131 m -38.75278,5.75322 32.30232,0 c 28.81538,0 57.03293,5.47912 57.03293,70.93025 0,65.67524 -18.05619,76.783 -58.47741,76.783 l -30.85784,0 0,-147.71325 z"
     inkscape:connector-curvature="0" /><path
     style="fill:#000000;fill-opacity:1;fill-rule:nonzero;stroke:none"
     id="path1542-6"
     d="m 919.01373,119.12758 c -35.46525,-11.805 -68.98769,-23.012523 -68.98769,-62.213366 0,-15.541011 4.68212,-51.7034972 47.71844,-51.7034972 52.97359,0 78.12796,83.6071222 78.12796,104.2287732 l 0,1.04591 2.93897,0 0.11985,-108.6867118 -1.81919,2.3909044 c -7.39686,9.8376094 -23.28638,9.1651534 -24.15808,9.0904294 l -0.0799,0 c -4.53284,0 -11.53114,-2.241468 -18.42992,-4.8067002 -10.06184,-3.760709 -22.61409,-8.4179978 -36.71045,-8.4179978 -49.03858,0 -79.42303,49.063433 -79.42303,94.465735 0,55.314711 41.86583,70.357601 82.38681,84.977101 34.44403,12.32802 66.9702,24.00856 66.9702,60.71913 0,37.43251 -28.21755,54.14397 -56.11148,54.14397 -67.91683,0 -92.79709,-103.7804 -92.79709,-112.49729 l 0,-0.39843 -2.96378,0 0,113.4685 1.79316,-2.04221 c 8.01952,-9.53882 14.02154,-10.28582 21.02009,-10.28582 9.66327,0 17.95666,3.26246 27.57005,6.94842 12.52743,4.88153 26.69849,10.38559 48.0175,10.38559 39.69892,0 87.64165,-43.23561 87.64165,-96.90644 0,-56.31087 -42.08987,-70.30771 -82.83496,-83.906"
     inkscape:connector-curvature="0" /></g></svg>